<svg width="50" height="50" viewBox="0 0 50 50" fill="none" xmlns="http://www.w3.org/2000/svg">
<path fill-rule="evenodd" clip-rule="evenodd" d="M3.3855 25C3.3855 25.8629 4.08506 26.5625 4.948 26.5625H27.8076L23.7228 30.0638C23.0676 30.6252 22.9917 31.6117 23.5534 32.2669C24.1149 32.9221 25.1013 32.9979 25.7565 32.4363L33.0482 26.1863C33.3945 25.8896 33.5938 25.456 33.5938 25C33.5938 24.544 33.3945 24.1104 33.0482 23.8138L25.7565 17.5637C25.1013 17.0021 24.1149 17.0779 23.5534 17.7331C22.9917 18.3883 23.0676 19.3748 23.7228 19.9363L27.8076 23.4375H4.948C4.08506 23.4375 3.3855 24.1371 3.3855 25Z" fill="white"/>
<path d="M19.5312 20.3126H20.3193C19.7807 18.7843 20.0502 17.0183 21.1806 15.6995C22.8654 13.7339 25.8246 13.5063 27.7902 15.1911L35.0819 21.441C36.1208 22.3317 36.7187 23.6317 36.7187 25C36.7187 26.3685 36.1208 27.6685 35.0819 28.5592L27.7902 34.8092C25.8246 36.494 22.8654 36.2663 21.1806 34.3006C20.0502 32.9819 19.7807 31.2158 20.3193 29.6875H19.5312V33.3333C19.5312 39.2258 19.5313 42.1721 21.3619 44.0027C23.1925 45.8333 26.1387 45.8333 32.0312 45.8333H34.1146C40.0071 45.8333 42.9533 45.8333 44.784 44.0027C46.6146 42.1721 46.6146 39.2258 46.6146 33.3333V16.6667C46.6146 10.7741 46.6146 7.82783 44.784 5.99725C42.9533 4.16667 40.0071 4.16667 34.1146 4.16667H32.0312C26.1387 4.16667 23.1925 4.16667 21.3619 5.99725C19.5313 7.82783 19.5312 10.7741 19.5312 16.6667V20.3126Z" fill="white"/>
</svg>
