<svg width="50" height="50" viewBox="0 0 50 50" fill="none" xmlns="http://www.w3.org/2000/svg">
<path d="M4.1687 24.9979H33.3354M33.3354 24.9979L26.0437 18.748M33.3354 24.9979L26.0437 31.2479" stroke="white" stroke-width="4" stroke-linecap="round" stroke-linejoin="round"/>
<path d="M18.7542 14.5833C18.7794 10.052 18.9803 7.59804 20.5811 5.99725C22.4118 4.16667 25.358 4.16667 31.2505 4.16667H33.3338C39.2263 4.16667 42.1728 4.16667 44.0032 5.99725C45.8338 7.82783 45.8338 10.7741 45.8338 16.6667V33.3333C45.8338 39.2258 45.8338 42.1721 44.0032 44.0027C42.4024 45.6035 39.9484 45.8046 35.4168 45.8298M18.7542 35.4167C18.7794 39.9479 18.9803 42.4019 20.5811 44.0027C21.9172 45.3388 23.8474 45.6998 27.0834 45.7973" stroke="white" stroke-width="4" stroke-linecap="round"/>
</svg>
