<svg width="64" height="64" viewBox="0 0 64 64" fill="none" xmlns="http://www.w3.org/2000/svg">
<path d="M24 12H21.3333C15.0479 12 11.9053 12 9.95261 13.9526C8 15.9053 8 19.0479 8 25.3333V26.6667M24 52H21.3333C15.0479 52 11.9053 52 9.95261 50.0475C8 48.0947 8 44.952 8 38.6667V37.3333" stroke="white" stroke-width="4" stroke-linecap="round"/>
<path d="M36.4203 6.25963C30.6547 5.25403 27.772 4.75123 25.886 6.4232C24 8.09517 24 11.1536 24 17.2704V46.7296C24 52.8464 24 55.9048 25.886 57.5768C27.772 59.2488 30.6547 58.7459 36.4203 57.7403L42.6304 56.6573C49.0157 55.5435 52.2083 54.9867 54.1043 52.6445C56 50.3027 56 46.9155 56 40.1411V23.859C56 17.0846 56 13.6974 54.1043 11.3554C52.8373 9.79021 50.9912 9.02235 48 8.35275" stroke="white" stroke-width="4" stroke-linecap="round"/>
<path d="M32 29.3333V34.6667" stroke="white" stroke-width="4" stroke-linecap="round"/>
</svg>
