<svg width="48" height="54" viewBox="0 0 48 54" fill="none" xmlns="http://www.w3.org/2000/svg">
<path fill-rule="evenodd" clip-rule="evenodd" d="M17.886 1.08985C16 2.76183 16 5.82023 16 11.9371V41.3963C16 47.5131 16 50.5715 17.886 52.2435C19.772 53.9155 22.6547 53.4125 28.4203 52.4069L34.6304 51.324C41.0157 50.2101 44.2083 49.6533 46.1043 47.3112C48 44.9693 48 41.5821 48 34.8077V18.5256C48 11.7512 48 8.36404 46.1043 6.02201C44.2083 3.67996 41.0157 3.12313 34.6304 2.00943L28.4203 0.926281C22.6547 -0.0793192 19.772 -0.582119 17.886 1.08985ZM24 21.7829C25.1045 21.7829 26 22.72 26 23.876V29.4573C26 30.6133 25.1045 31.5504 24 31.5504C22.8955 31.5504 22 30.6133 22 29.4573V23.876C22 22.72 22.8955 21.7829 24 21.7829Z" fill="white"/>
<path d="M12.1258 6.66665C6.63704 6.67465 3.77597 6.79535 1.95261 8.61871C-1.58946e-07 10.5713 0 13.714 0 19.9994V33.3328C0 39.6181 -1.58946e-07 42.7608 1.95261 44.7136C3.77597 46.5368 6.63704 46.6576 12.1258 46.6656C11.9996 45.0035 11.9998 43.0819 12 41.0048V12.3272C11.9998 10.2503 11.9996 8.32879 12.1258 6.66665Z" fill="white"/>
</svg>
